<svg id="etyBadWTYSU1" xmlns="http://www.w3.org/2000/svg" xmlns:xlink="http://www.w3.org/1999/xlink" viewBox="0 0 1735 755" shape-rendering="geometricPrecision" text-rendering="geometricPrecision"><path d="M497.932678,635.014221c-34.976715-.005554-69.959167.374329-104.9281-.150207-23.91568-.358704-47.468811-4.23938-70.29538-11.567383-17.406647-5.588196-33.918335-13.187805-49.14505-23.480347-21.523499-14.548889-39.655121-32.464783-54.82637-53.543152-11.638291-16.169738-20.987198-33.481567-27.211167-52.380676-5.465774-16.596924-8.672302-33.640045-8.545578-51.216858.083451-11.576599-.361541-23.169586.104721-34.728027.773728-19.180481,4.342972-37.819428,12.600876-55.347901.846329-1.796417,1.465424-3.69989,2.664414-6.027465c22.459671-3.095704,44.002777-7.495392,64.816009-15.333619c39.863953-15.012786,70.546173-40.651947,90.707978-78.291503c5.690856-10.624115,10.059753-21.956315,15.034973-32.963746c8.534454.34665,17.073211,1.03946,25.60202.933258c7.15332-.08908,7.016327,5.265488,8.912476,10.174103c1.17572,3.729676,1.827667,6.989411,2.514862,10.241715c9.714172,45.975631,35.750579,78.797775,79.333313,96.789627c36.370452,15.014435,74.265289,19.177765,113.093536,12.640655c27.222473-4.58316,53.41095-12.294281,76.163513-28.863311c9.832581-7.16037,18.568237-15.403321,25.715759-25.482056-16.592712-18.212555-32.910278-36.123016-49.323425-54.138428-6.802185,5.063782-13.021912,9.78711-19.337097,14.379303-29.183594,21.221405-60.905273,26.911865-94.754211,13.589142-22.516358-8.862305-36.132874-25.87027-39.755555-50.236649c262.252198.000794,524.504456-.075347,786.756592.048066c81.434082.038314,162.874024.180053,244.296753,1.315353c16.481812.229813,33.241577,3.899612,49.240356,8.290039c13.768677,3.778458,27.177491,9.857803,39.737183,16.755783c11.055298,6.071793,21.366455,13.95488,30.810059,22.378891c9.712768,8.664307,18.485351,18.539002,26.71228,28.661835c6.345337,7.807678,11.666138,16.560303,16.641113,25.346496c11.333496,20.016022,20.427246,41.035767,24.925171,63.715607c1.859009,9.373261,2.604126,18.969391,3.806152,28.470429c2.214356,17.501922-.423095,34.649231-3.968261,51.703277-4.333863,20.84845-12.705933,40.141449-22.943726,58.693604-2.002929,3.629455-4.019043,7.251709-6.480835,11.227844-22.254028-2.538757-43.79834-7.111633-66.154175-4.811524-39.440429,4.057679-69.056274,22.707764-88.780761,57.010926-8.224488,14.303467-12.340943,30.003662-14.809571,46.193359-7.519897-.337829-15.052978-.521973-22.547363-1.159973-1.298462-.110596-2.43335-2.1427-3.922851-3.972656c5.759521-32.22461,11.798217-63.763855,17.947021-95.87854-14.849976,0-28.65918-.001709-42.468384.00061-9.975464.001709-12.873291,1.948731-14.881836,11.658325-5.183716,25.058838-10.044311,50.184326-15.068237,75.276367-1.078613,5.387207-2.301636,10.745484-3.618164,16.861145-1.20874-1.332092-1.741333-1.758483-2.072266-2.30664-13.672485-22.646912-27.314331-45.312439-40.991211-67.956726-4.378051-7.248535-7.99646-15.171204-13.442016-21.515381-11.734619-13.671448-27.534668-14.560486-44.040406-11.690552-7.337158,1.275696-11.325927,5.74823-12.758911,12.846924-2.991821,14.819885-5.975586,29.641418-9.018798,44.450745-2.972779,14.46643-6.015625,28.918579-9.02771,43.376953-9.906006-.335083-19.811402-.692993-29.718628-.990479-2.72815-.081848-4.648926-.48938-3.462525-4.052063.435425-1.307739-.041504-2.919311-.367676-5.075439c5.351563-30.542053,10.968262-60.401062,16.650147-90.60553-1.939331-.085449-3.411377-.19989-4.883911-.207336-12.662232-.064087-25.324707-.064393-37.98645-.173584-9.633789-.083069-13.773926,2.845398-15.9646,12.22467-1.963623,8.407532-3.49353,16.916016-5.229126,25.377075-4.342163,21.169251-8.692505,42.336792-13.039551,63.505066-9.684326-.336853-19.368286-.685791-29.053222-1.004639-4.053833-.133483-5.660523-1.813964-4.479737-6.023193.555054-1.978577.247559-4.199219.101197-7.030945c5.117675-29.230407,10.464965-57.740112,15.971801-87.100036-8.309692,0-15.866699.770324-23.208862-.157898-16.026855-2.026123-28.269409,3.888916-37.843506,16.231445-16.411743,21.157166-32.588379,42.497314-49.081421,63.590515-8.170166,10.448853-16.824951,20.51886-25.877685,31.509583-3.519165-8.686341-6.537354-16.214112-9.614746-23.717652-9.961792-24.289795-19.898499-48.590088-29.948059-72.843689-3.182496-7.680786-8.241944-13.347107-17.264649-13.733947-7.636108-.327576-15.282776-.660706-22.921753-.602112-8.221374.06311-12.120849,3.295288-13.840149,11.521728-2.140686,10.242188-3.76532,20.591492-5.850952,30.84607-3.971558,19.526916-8.11206,39.019409-12.182373,58.526184-9.137878-.005066-18.278198.117981-27.412964-.053528-8.10321-.1521-16.215637-.44928-24.286377-1.129456-1.504333-.126709-2.8302-2.371277-4.751098-4.095276-8.526001-32.106567-16.539368-63.756347-24.647706-95.78125-15.522338,0-30.811584-.251098-46.085998.115052-6.763306.162231-11.672363,4.552551-15.457336,9.849121-3.762818,5.26532-7.204285,10.762817-10.722168,16.200195-16.146363,24.956726-32.270203,49.92804-48.4021,74.894104-16.476196-.658752-32.952454-1.317444-50.290649-1.972412-15.002442-1.061462-29.170899-1.859863-43.268006-3.338623-4.845154-.50824-6.959778,1.132873-8.445556,5.37085-27.690674-.374817-54.867066-.723816-82.069336-1.49408c1.468811-6.353455,2.180908-12.625855,4.586853-18.162048c14.320068-32.950501,53.016723-47.786072,85.707031-32.747132c8.200806,3.772644,15.647705,9.184082,23.807434,14.061463c10.409119-8.388062,21.157104-17.297181,32.207336-25.814331c3.682007-2.838013,4.189759-4.896668,1.407044-8.781983-11.089783-15.48407-26.476013-23.635315-44.661804-27.66748-33.959595-7.529663-66.978028-6.168213-98.710328,9.417602-22.122314,10.865662-38.460754,27.455811-49.598785,49.362061-6.708984,13.195129-10.038422,27.388367-12.828766,41.766296M768.500061,373.579529c-10.998047.00003-21.996155.000122-32.994202.000122-100.648498,0-201.296936.014343-301.945434-.019043-11.837311-.003937-23.246765,1.492309-33.288025,8.406433-13.021637,8.96637-18.441406,22.016052-19.003235,37.209991-.754181,20.396363,6.677612,36.706543,25.259644,46.759644c8.393097,4.540802,17.602203,5.92807,26.991424,5.960449c26.993866.093079,53.988251.032532,80.982453.032563c126.810424.000061,253.620788.013336,380.431213-.039765c6.149475-.002563,12.378357-.07077,18.432251-1.004089c15.092956-2.32666,27.06366-9.539765,34.366882-23.50296c5.645935-10.794831,6.530701-22.403626,4.951721-34.045441-2.081543-15.346466-9.593689-27.40268-24.017211-34.468781-8.781434-4.302063-18.131531-5.281768-27.691163-5.284149-43.825439-.011047-87.650817-.005157-132.476318-.004974m585.146301,84.63501c21.037598,5.861755,42.074341-12.684632,41.170166-32.325104-.805053-17.484192-14.516235-30.386444-31.411377-30.152832-21.505371.297363-31.578735,14.624634-33.250854,31.925781-1.206909,12.487885,8.504272,24.315308,23.492065,30.552155m-79.594848-64.454194c-3.346436-10.931121-11.115723-17.822845-20.964356-22.711151-12.177124-6.044037-28.334228-1.796447-36.133667,9.372284-14.058227,20.131287-5.078125,44.208557,18.971924,50.867279c20.808228,5.761139,43.158325-15.721527,38.126099-37.528412m73.701172-45.702056c-4.377686-10.475403-12.258545-17.695649-21.983277-22.957947-5.275879-2.85495-10.937378-4.752594-17.210449-3.431275-13.733765,2.892792-26.464722,20.334565-24.96228,34.356232c2.592407,24.193848,29.7854,37.226227,50.262085,24.088348c10.28601-6.599456,16.485717-20.351867,13.893921-32.055358m-45.433106,99.001068c-4.303833-1.220459-8.540283-2.827393-12.923706-3.592377-16.276611-2.840851-29.626465,6.330414-31.959351,22.183075-1.408447,9.571045,2.585206,17.928223,7.695923,25.667328c8.376465,12.684326,21.127075,17.390991,33.922852,12.343536c15.458008-6.097595,22.976196-19.037353,22.315063-34.191559-.507446-11.629211-8.768432-17.60086-19.050781-22.410003Z" fill="#e9edf1"/><path d="M368.929626,219.580338c-4.994842,11.41043-9.363739,22.74263-15.054595,33.366745-20.161805,37.639556-50.844025,63.278717-90.707978,78.291503-20.813232,7.838227-42.356338,12.237915-64.750061,14.989685-14.902145.102448-29.395828.03125-43.889358.055848-44.829369.07611-89.658669.191467-134.488024.27597-1.609428.003052-3.21917-.158386-5.418123-.27417c2.012729-10.737518,3.84206-21.007049,5.870536-31.237152C36.377281,234.935776,52.296387,154.829468,68.217278,74.723549c2.265045-11.396587,4.354736-22.835735,6.966156-34.153534c2.455337-10.641445,6.61161-13.689346,17.696586-13.547691c50.143616.640787,100.302628.791603,150.424042,2.233036c41.86702,1.204044,77.703628,16.756393,104.977035,49.472438c20.657593,24.779999,28.946778,53.865967,28.525818,85.701203-.245514,18.566879-3.503143,36.747513-7.877289,55.151337M284.923798,171.35434c.293609-12.114365-1.114228-23.967942-6.432129-34.996369-9.800873-20.325332-27.412369-30.564987-48.624543-32.883568-21.917999-2.395729-44.158157-1.904884-66.26239-2.487259-4.735275-.124755-8.271774,2.559472-10.09613,6.88926-1.211517,2.875313-1.974976,5.985092-2.588196,9.059868-7.89772,39.600425-15.768524,79.206306-23.561165,118.827522-2.400741,12.206436-4.544471,24.463409-6.789863,36.610626.693626.294098.999901.539734,1.303146.536041c25.463974-.30896,51.019501.586884,76.365326-1.313201c24.674713-1.849762,45.815414-12.847352,62.087952-32.165085c16.353515-19.413849,22.886596-42.370819,24.597992-68.077835Z" transform="translate(-14.621487 21.735199)" fill="#ff9103"/><path d="M496.937897,219.597687c3.759979,24.779388,17.376495,41.787353,39.892853,50.649658c33.848938,13.322723,65.570617,7.632263,94.754211-13.589142c6.315185-4.592193,12.534912-9.315521,19.337097-14.379303c16.413147,18.015412,32.730713,35.925873,49.323425,54.138428-7.147522,10.078735-15.883178,18.321686-25.715759,25.482056-22.752563,16.56903-48.94104,24.280151-76.163513,28.863311-38.828247,6.53711-76.723084,2.37378-113.093536-12.640655-43.582734-17.991852-69.619141-50.813996-79.333313-96.789627-.687195-3.252304-1.339142-6.512039-2.128144-10.111374-2.538513-24.671936.566651-48.568375,6.725037-71.98584c14.683685-55.835083,48.964538-95.463791,101.323334-119.308624c33.322052-15.175274,68.551117-21.209141,105.038726-18.76935c28.937928,1.934971,56.604371,8.892839,80.613282,25.966829c13.510559,9.608089,26.077026,20.543793,39.512146,31.234146-23.394104,18.777054-46.292054,37.155914-68.389466,54.892212-7.772705-7.381462-14.546325-15.04184-22.519836-21.131119C629.4375,99.383232,609.900391,95.77993,589.444275,97.81881c-42.706909,4.256637-72.359375,26.356742-87.56897,66.64434-6.640289,17.589096-6.747406,36.164948-4.937408,55.134537Z" fill="#ff9104"/><path d="M941.884277,635.417114c4.041993-19.908813,8.182495-39.401306,12.154053-58.928222c2.085632-10.254578,3.710266-20.603882,5.850952-30.84607c1.7193-8.22644,5.618775-11.458618,13.840149-11.521728c7.638977-.058594,15.285645.274536,22.921753.602112c9.022705.38684,14.082153,6.053161,17.264649,13.733947c10.04956,24.253601,19.986267,48.553894,29.948059,72.843689c3.077392,7.50354,6.095581,15.031311,9.614746,23.717652c9.052734-10.990723,17.707519-21.06073,25.877685-31.509583c16.493042-21.093201,32.669678-42.433349,49.081421-63.590515c9.574097-12.342529,21.816651-18.257568,37.843506-16.231445c7.342163.928222,14.89917.157898,23.208862.157898-5.506836,29.359924-10.854126,57.869629-16.176147,86.769043-6.378418,32.164978-12.683228,63.960449-19.239258,95.704162-2.307495,11.17273-6.651245,13.706543-17.960327,13.086365-10.302002-.564941-20.651611-.263123-30.980225-.339111-1.63269-.012024-3.265625-.001648-5.732055-.001648c1.733276-9.293702,3.34143-18.045349,5.000854-26.787293c3.812622-20.086548,7.651123-40.168152,11.472412-60.253113.12439-.653259.359497-1.361694.222901-1.972839-.292969-1.308838-.795288-2.57074-1.211792-3.851929-1.016114.635315-2.309082,1.052735-3.00647,1.938904-9.360962,11.894104-18.560791,23.915283-27.960571,35.778198-8.161377,10.299866-15.99231,20.935974-24.932007,30.526184-11.863281,12.726563-27.804688,9.355286-34.581787-6.659179-8.80896-20.815796-17.512757-41.676209-26.274536-62.512024-.557557-1.325928-1.224549-2.605957-2.411683-5.113403-6.855835,33.179687-13.45697,65.126647-20.14215,97.480285-17.043702,0-34.091065,0-51.884766,0c6.09198-30.699646,12.156067-61.258972,18.191772-92.220337Z" fill="#d4d435"/><path d="M1300.978638,635.414551c2.98584-14.871643,6.028686-29.323792,9.001465-43.790222c3.043212-14.809327,6.026977-29.63086,9.018798-44.450745c1.432984-7.098694,5.421753-11.571228,12.758911-12.846924c16.505738-2.869934,32.305787-1.980896,44.040406,11.690552c5.445556,6.344177,9.063965,14.266846,13.442016,21.515381c13.67688,22.644287,27.318726,45.309814,40.991211,67.956726.330933.548157.863526.974548,2.072266,2.30664c1.316528-6.115661,2.539551-11.473938,3.618164-16.861145c5.023926-25.092041,9.884521-50.217529,15.068237-75.276367c2.008545-9.709594,4.906372-11.656616,14.881836-11.658325c13.809204-.002319,27.618408-.00061,42.468384-.00061-6.148804,32.114685-12.1875,63.65393-18.19458,95.593628-5.987061,29.52063-12.150147,58.61206-17.924683,87.780517-1.484619,7.499024-5.320556,11.35083-12.820678,12.153748-23.89563,2.558166-39.998047-2.02124-53.108033-25.74823-14.065307-25.455872-29.397094-50.211975-44.189453-75.265686-.494507-.837464-1.132324-1.590454-2.343384-3.271179-1.656005,7.738769-3.170654,14.59851-4.58789,21.478271-5.330811,25.879517-10.590454,51.773926-16.047119,77.62677-.301514,1.428284-2.125122,3.60968-3.264893,3.625244-17.124145.233338-34.252441.161682-52.395264.161682c5.920411-31.155761,11.730469-61.731079,17.514283-92.719726Z" fill="#d4d334"/><path d="M638.600342,635.099609c.971435-4.263733,3.086059-5.904846,7.931213-5.396606c14.097107,1.47876,28.265564,2.277161,42.826233,3.361816-3.833862,21.364563-8.139587,42.699585-12.319214,64.059265-1.968811,10.061097-7.688843,17.293091-16.664917,21.735413-36.011902,17.822327-73.15393,19.848267-110.783996,6.181213-28.511109-10.355102-44.265992-31.964538-49.495545-61.30896-1.621246-9.097412-1.449371-18.514282-2.129944-28.25122c2.75885-14.844238,6.088288-29.037476,12.797272-42.232605c11.138031-21.90625,27.476471-38.496399,49.598785-49.362061c31.7323-15.585815,64.750733-16.947265,98.710328-9.417602c18.185791,4.032165,33.572021,12.18341,44.661804,27.66748c2.782715,3.885315,2.274963,5.94397-1.407044,8.781983-11.050232,8.51715-21.798217,17.426269-32.207336,25.814331-8.159729-4.877381-15.606628-10.288819-23.807434-14.061463-32.690308-15.03894-71.386963-.203369-85.707031,32.747132-2.405945,5.536193-3.118042,11.808593-4.701294,18.567504-3.710327,19.281189,3.294861,36.471619,18.676635,45.658509c13.341126,7.968139,27.96283,9.277221,42.902893,6.320679c9.622498-1.904175,14.051148-7.624207,15.455445-17.044617c1.685058-11.303589,3.758117-22.549378,5.663147-33.820191Z" fill="#d4d335"/><path d="M1516.751221,635.413208c2.580932-16.592224,6.697387-32.292419,14.921875-46.595886c19.724487-34.303162,49.340332-52.953247,88.780761-57.010926c22.355835-2.300109,43.900147,2.272767,66.112549,5.164002c14.182617,8.889831,27.9552,17.777649,42.460572,27.138489-4.179932,3.418579-7.78711,6.43457-11.464478,9.362243-7.665527,6.102417-15.470581,12.034851-23.008423,18.290039-3.273559,2.716614-6.005371,3.429505-10.151001,1.44867-10.775146-5.148499-21.834839-9.70282-32.795898-14.459778-.888428-.385437-1.891236-.506714-3.673218-.816101-9.66626.335083-18.664795-.201111-27.302124,1.317627-22.694946,3.990601-40.65918,22.940552-43.581421,44.736084-15.493286,33.348022,10.857056,61.436767,37.96167,62.86792c7.867554.415344,15.935059-1.236389,23.781494-2.65564c7.004639-1.267151,9.559082-7.292114,11.268311-13.298096c2.894409-10.170898,4.87207-20.625549,8.175903-30.650878c3.385986-10.274781,10.029419-14.780213,20.901367-14.242188c9.494751.469849,18.926148,2.220581,28.934815,3.474182-3.60376,18.394837-7.015747,35.833801-10.438965,53.270569-1.173584,5.977295-2.45813,11.934021-3.542237,17.927307-1.257934,6.95343-5.492797,11.95105-11.28894,15.124268-15.954834,8.734741-32.708374,15.137146-51.028442,17.343567-27.266846,3.284057-52.772217-1.871338-76.712647-14.874573-21.017334-11.415588-33.02832-29.620178-36.833252-52.918762-1.579956-9.675049-1.121826-19.683045-1.478271-29.942139Z" fill="#d4d435"/><path d="M739.990112,635.347168c16.231995-25.299194,32.355835-50.270508,48.502198-75.227234c3.517883-5.437378,6.95935-10.934875,10.722168-16.200195c3.784973-5.29657,8.69403-9.68689,15.457336-9.849121c15.274414-.36615,30.56366-.115052,46.085998-.115052c8.108338,32.024903,16.121705,63.674683,24.292603,95.683716c7.498962,33.021546,14.840454,65.683838,22.237854,98.595093-1.595703.189514-2.56134.402832-3.527222.404175-15.663391.021484-31.327209-.046265-46.989685.070862-3.018066.022522-4.32257-.860535-5.050049-3.973694-2.30603-9.869019-5.178344-19.605164-7.530212-29.464539-.705566-2.958069-1.776184-4.149597-4.940185-4.100647-22.315003.345154-44.634034.438416-66.948792.796997-8.357361.134217-13.341919,5.266602-16.468506,12.472229-3.228576,7.440613-7.404968,14.121704-14.113464,18.947205-7.968201,5.731628-17.049439,7.105408-26.55072,6.708313-11.131226-.465332-22.258789-1.018128-34.18805-1.570007c19.660279-30.986207,39.284485-61.915528,59.008728-93.178101m56.25708-.050232c-2.456237,4.338806-4.912475,8.677551-7.52771,13.297302c15.924683,0,30.93042,0,46.241639,0-1.789917-8.423828-3.497559-16.460388-5.161805-25.294311-2.11029-11.267395-4.220581-22.53479-6.330871-33.802124-.371704-.084473-.743408-.168946-1.115174-.253479-8.522583,15.220398-17.045166,30.440796-26.106079,46.052612Z" fill="#d4d334"/><path d="M1206.976318,635.411621c4.320801-21.576233,8.671143-42.743774,13.013306-63.913025c1.735596-8.461059,3.265503-16.969543,5.229126-25.377075c2.190674-9.379272,6.330811-12.307739,15.9646-12.22467c12.661743.109191,25.324218.109497,37.98645.173584c1.472534.007446,2.94458.121887,4.883911.207336-5.681885,30.204468-11.298584,60.063477-16.895874,90.319031-6.373169,31.48407-12.691284,62.587097-19.208374,93.648498-1.745117,8.317139-6.25354,11.536743-14.493652,11.41449-13.642823-.202393-27.286377-.348816-40.929566-.532104-.977417-.013123-1.953247-.134339-3.273437-.230164c5.947876-31.189758,11.848754-62.133911,17.72351-93.485901Z" fill="#d4d334"/><path d="M1577.429199,623.981506c2.543457-21.789367,20.507691-40.739318,43.202637-44.729919c8.637329-1.518738,17.635864-.982544,26.919189-1.282349-6.173339,7.167542-11.984985,15.303101-19.590454,21.074951-15.01709,11.396424-32.544922,18.393067-50.531372,24.937317Z" fill="#e9edec"/><path d="M769.000122,373.579346c44.32544,0,88.150818-.00589,131.976257.005157c9.559632.002381,18.909729.982086,27.691163,5.284149c14.423522,7.066101,21.935668,19.122315,24.017211,34.468781c1.57898,11.641815.694214,23.25061-4.951721,34.045441-7.303222,13.963195-19.273926,21.1763-34.366882,23.50296-6.053894.933319-12.282776,1.001526-18.432251,1.004089-126.810425.053101-253.620789.039826-380.431213.039765-26.994202-.000031-53.988587.060516-80.982453-.032563-9.389221-.032379-18.598327-1.419647-26.991424-5.960449-18.582032-10.053101-26.013825-26.363281-25.259644-46.759644.561829-15.193939,5.981598-28.243621,19.003235-37.209991c10.04126-6.914124,21.450714-8.41037,33.288025-8.406433c100.648498.033386,201.296936.019043,301.945434.019043c10.998047,0,21.996155-.000092,33.494263-.000305Z" fill="#ff017b"/><path d="M1353.263184,458.071533c-14.604615-6.093841-24.315796-17.921264-23.108887-30.409149c1.672119-17.301147,11.745483-31.628418,33.250854-31.925781c16.895142-.233612,30.606324,12.66864,31.411377,30.152832.904175,19.640472-20.132568,38.186859-41.553344,32.182098Z" fill="#20d8e6"/><path d="M1274.076416,394.177551c5.007324,21.389679-17.342773,42.872345-38.151001,37.111206-24.050049-6.658722-33.030151-30.735992-18.971924-50.867279c7.799439-11.168731,23.956543-15.416321,36.133667-9.372284c9.848633,4.888306,17.61792,11.78003,20.989258,23.128357Z" fill="#101041"/><path d="M1347.855835,348.447144c2.488647,11.314636-3.71106,25.067047-13.99707,31.666503-20.476685,13.137879-47.669678.1055-50.262085-24.088348-1.502442-14.021667,11.228515-31.46344,24.96228-34.356232c6.273071-1.321319,11.93457.576325,17.210449,3.431275c9.724732,5.262298,17.605591,12.482544,22.086426,23.346802Z" fill="#fe9307"/><path d="M1302.668945,447.213623c9.932984,4.654877,18.19397,10.626526,18.701416,22.255737.661133,15.154206-6.857055,28.093964-22.315063,34.191559-12.795777,5.047455-25.546387.34079-33.922852-12.343536-5.110717-7.739105-9.10437-16.096283-7.695923-25.667328c2.332886-15.852661,15.68274-25.023926,31.959351-22.183075c4.383423.764984,8.619873,2.371918,13.273071,3.746643Z" fill="#fe0a80"/><path d="M796.785522,634.905518c8.522583-15.220398,17.045166-30.440796,25.567749-45.661194.371766.084533.74347.169006,1.115174.253479c2.11029,11.267334,4.220581,22.534729,6.075195,34.493164-.255676,3.274475-.255676,5.85791-.255676,8.716614-.514404.267883-1.219727.938415-1.953735.971618-10.180604.459961-20.365113.832459-30.548707,1.226319Z" fill="#e9eeea"/></svg>
